<?xml version="1.0" encoding="utf-8"?>
<!-- Generator: Adobe Illustrator 15.0.0, SVG Export Plug-In . SVG Version: 6.00 Build 0)  -->
<!DOCTYPE svg PUBLIC "-//W3C//DTD SVG 1.1//EN" "http://www.w3.org/Graphics/SVG/1.1/DTD/svg11.dtd">
<svg version="1.1" id="Layer_1" xmlns="http://www.w3.org/2000/svg" xmlns:xlink="http://www.w3.org/1999/xlink" x="0px" y="0px"
	 width="550.561px" height="612px" viewBox="0 0 550.561 612" enable-background="new 0 0 550.561 612" xml:space="preserve">
<path d="M452.426,213.244L452.426,213.244c-9.683-27.731-35.62-47.334-66.102-47.334h-0.119h-56.061V0l-23.548,3.347
	c-53.43,7.65-95.027,34.784-123.714,80.445c-20.679,32.991-30.242,69.448-34.664,96.581c-30.72,23.667-57.495,56.299-79.608,96.939
	c-18.647,34.307-34.066,74.589-45.9,119.65C2.75,473.104,0.121,536.217,0,538.847V612h41.238v-71.719
	c0.478-10.64,13.507-242.889,138.059-331.46l7.292-5.14l1.195-8.845c6.335-46.02,27.731-121.922,101.123-145.23v157.662h97.299
	h0.119c12.433,0,23.069,8.009,26.896,19.125v0.239c16.495,48.53,44.705,109.371,88.812,137.939l-13.268,49.725
	c-9.323,35.023-40.88,60.483-78.293,60.483h-2.511h0.119c-36.936-1.076-75.424,3.705-114.392,14.344l-15.181,4.184V612h41.237
	v-87.139c23.668-5.856,50.802-9.203,78.652-9.203c2.988,0,5.855,0,8.845,0.119h-0.478h3.347c56.538,0,104.111-38.25,118.216-90.246
	l0.239-0.837l21.994-82.717l-16.376-7.052C503.705,321.896,474.539,278.627,452.426,213.244L452.426,213.244z"/>
</svg>
