<?xml version="1.0" encoding="utf-8"?>
<svg
    version="1.1"
    xmlns="http://www.w3.org/2000/svg"
    x="0px"
    y="0px"
    width="436.195px"
    height="612.119px"
    viewBox="87.855 90 436.195 612.119"
    xml:space="preserve"
>
    <path fill="#EE8C00" d="M236.22,175.465c0.478,10.041,1.435,20.798,3.228,32.154
				c5.14-8.008,11.116-15.539,17.93-22.472C249.846,181.322,242.794,178.214,236.22,175.465 M251.998,90
				c-5.977,0.12-9.802,5.618-11.476,16.137c-1.793,10.399-4.303,27.612-4.542,49.605c12.432,2.63,26.775,6.455,42.792,12.073
				c4.423-2.988,8.846-5.738,13.627-8.248c14.104-7.411,26.774-12.192,38.369-14.703c-32.871-33.588-57.853-44.824-69.208-51.637
				c-3.586-2.152-6.574-3.228-9.204-3.228H251.998"/>
    <path fill="#EABD63" d="M169.76,150.124c-9.801,0-13.984,4.064-13.507,12.192
				c1.793-3.347,4.901-5.259,9.683-5.259c1.554,0,3.227,0.239,5.02,0.598c11.117,2.271,32.991,4.662,65.265,17.93
				c-0.239-4.542-0.358-8.965-0.358-13.268c0-0.598,0-1.076,0-1.673c0-0.478,0-1.076,0-1.554c0-0.598,0-1.076,0-1.673
				s0-1.076,0-1.673c-24.743-5.259-42.793-5.618-54.984-5.618c-1.076,0-2.152,0-3.108,0s-1.912,0-2.749,0c-1.554,0-2.988,0-4.303,0
				C170.478,150.124,170.119,150.124,169.76,150.124 M351.447,142.474c-6.454,0-13.388,0.717-20.798,2.032
				c5.379,5.499,10.996,11.714,16.854,18.527L241.957,222.44l0,0l0,0c-1.076-5.14-1.912-10.16-2.63-15.061
				c-16.854,26.297-24.743,57.494-22.113,88.812c-3.586,35.859,8.846,70.882,8.846,70.882s3.705-5.618,9.682-12.312
				c2.749,4.901,6.216,9.921,10.28,15.061c2.988,3.944,6.335,7.53,9.801,11.116c1.793,1.913,3.706,3.706,5.618,5.499
				c3.347,2.988,6.574,6.216,10.16,8.845c5.26,4.184,8.846,15.659,9.443,28.209c-17.213,79.607-136.266,161.367-89.888,274.205
				h163.04c0.598-56.419,8.009-100.646,16.615-143.677c34.186,84.628,84.389,142.72,108.773,143.677h29.046
				c17.452-0.718,26.058-42.195-8.247-55.104c-40.163-15.061-97.299-160.77-95.984-210.733
				c3.228-17.093,10.639-23.309,17.213-26.775c147.621-78.054,69.089-197.585,69.089-197.585
				c-5.737,2.988-10.997,4.303-16.017,4.303c-18.289,0-33.23-17.332-51.638-34.664C404.639,159.806,383.004,142.474,351.447,142.474
				"/>
    <path fill="#EABD63" d="M330.649,144.865c-11.595,2.51-24.265,7.172-38.489,14.703
				c-4.9,2.51-9.204,5.259-13.627,8.248c-16.017-5.618-30.241-9.443-42.792-12.073c0,0.598,0,1.076,0,1.673v4.901
				c0,4.303,0.12,8.726,0.358,13.268c6.694,2.749,13.627,5.977,21.157,9.682c-6.813,6.933-12.79,14.463-17.93,22.472
				c0.718,4.901,1.554,9.921,2.63,15.061l105.546-59.407C341.766,156.579,336.028,150.363,330.649,144.865"/>
    <path fill="#EE8C00" d="M203.588,689.21c-61.081,0-85.943-30.36-95.267-48.649c-16.495-31.795-10.997-73.631,14.224-109.251
		c11.834-16.615,15.659-34.066,10.758-47.693c-4.063-11.355-14.224-19.483-29.404-23.548c-11.475-2.988-18.408-14.941-15.3-26.416
		c2.988-11.475,14.821-18.408,26.416-15.3c29.046,7.77,49.964,25.699,59.049,50.681c9.802,27.134,3.825,58.93-16.257,87.378
		c-15.897,22.353-20.081,46.976-11.116,64.427c8.367,16.137,28.568,25.102,56.897,25.102c11.953,0,21.635,9.683,21.635,21.636
		S215.541,689.21,203.588,689.21"/>
    <path fill="#EABD63" d="M182.311,629.803c-6.813,50.682,8.846,72.197,8.846,72.316h208.582c4.423,0,17.571-2.51,17.571-19.723
		c0-15.539-10.758-25.102-25.341-28.09c-13.627-2.749-33.708-16.973-33.708-20.679c0-40.521-39.087-80.086-96.7-80.086
		C217.932,553.542,187.689,589.641,182.311,629.803"/>
    <path fill="#EE8C00" d="M200.24,248.499c-21.635-32.154-37.174-63.71-41.836-76.978c-1.314-3.586-1.912-6.694-2.151-9.443
		c2.271-4.422,6.933-6.335,14.702-4.662c14.344,2.988,46.737,5.857,96.701,32.871l-50.682,81.521
		c-4.422-5.738-8.605-11.475-12.67-17.332C202.87,252.443,201.556,250.53,200.24,248.499"/>
    <path fill="#25272B" d="M441.933,233.916c0,6.216-5.14,11.236-11.355,11.355c-6.335,0-11.355-5.14-11.355-11.355
		c0-6.215,5.14-11.355,11.355-11.355C436.912,222.56,441.933,227.7,441.933,233.916"/>
    <path fill="#FF3D00" d="M477.553,210.966l-1.195,1.434l0.479,1.793c0.358,0.359,8.247,8.606,16.614,9.084
		c2.032,0.12,3.945-0.239,5.618-0.956c1.076-0.479,1.554-1.674,1.076-2.75l-6.455-13.268c-0.598-1.076-1.912-1.554-2.988-1.076
		L477.553,210.966"/>
</svg>
