<?xml version="1.0" encoding="utf-8"?>
<!-- Generator: Adobe Illustrator 21.0.0, SVG Export Plug-In . SVG Version: 6.00 Build 0)  -->
<svg version="1.1" id="Layer_1" xmlns="http://www.w3.org/2000/svg" xmlns:xlink="http://www.w3.org/1999/xlink" x="0px" y="0px"
	 viewBox="0 0 512 512" style="enable-background:new 0 0 512 512;" xml:space="preserve">
<g>
	<path d="M137.8,19.7c0,22-17.4,39.4-39.4,39.4H78.8C35.5,59.1,0,94.5,0,137.8s35.5,78.8,78.8,78.8h22.8c-2,9.6-3.1,19.4-3.1,29.5
		v246.2h39.4V246.2c0-59.7,48.6-108.3,108.3-108.3c17.8,0,34.5,4.1,49.2,11.7v-42.5c-15.4-5.5-31.9-8.6-49.2-8.6
		c-56.5,0-105.6,32.1-130.5,78.8H78.8c-22,0-39.4-17.4-39.4-39.4s17.4-39.4,39.4-39.4h19.7c43.3,0,78.8-35.5,78.8-78.8H137.8z
		 M315.1,60.9v126.2c0,50.2,45.6,88.6,98.5,88.6s98.5-38.4,98.5-88.6V60.9l-30.8,21.5l-32.6,22.8c-11.2-4-22.3-8.6-35.1-8.6
		s-23.8,4.6-35.1,8.6l-32.6-22.8L315.1,60.9z M413.5,136c11.4,0,21.8,2.8,30.8,7.4l10.5,5.5l9.8-6.8l8-5.5v50.5
		c0,25.9-24.9,49.2-59.1,49.2s-59.1-23.3-59.1-49.2v-50.5l8,5.5l9.8,6.8l10.5-5.5C391.7,138.8,402.2,136,413.5,136z M275.7,236.3
		c-54.3,0-98.5,44.2-98.5,98.5v157.5h39.4V334.8c0-32.5,26.5-59.1,59.1-59.1s59.1,26.5,59.1,59.1v157.5h39.4V334.8
		c0-19-5.4-36.6-14.8-51.7c-19-9.1-34.9-22.8-46.2-39.4C301.7,238.9,288.9,236.3,275.7,236.3z M452.9,289.2
		c-12.4,4-25.5,6.2-39.4,6.2v196.9h39.4V289.2z"/>
</g>
</svg>
